<svg width="23" height="23" viewBox="0 0 23 23" fill="none" xmlns="http://www.w3.org/2000/svg">
<g clip-path="url(#clip0_2_718)">
<path d="M19.865 16.445C21.0042 14.4745 21.387 12.1566 20.942 9.92441C20.497 7.69222 19.2545 5.69839 17.4467 4.3154C15.639 2.93241 13.3895 2.25485 11.1187 2.4093C8.84778 2.56375 6.71081 3.53965 5.10694 5.15468C3.50308 6.76972 2.54203 8.91341 2.40334 11.1853C2.26465 13.4572 2.95781 15.7019 4.35331 17.5C5.74882 19.2981 7.75122 20.5267 9.98644 20.9563C12.2217 21.3858 14.5368 20.9869 16.4994 19.834L21.125 21.125L19.865 16.445Z" stroke="black" stroke-width="1.875" stroke-linejoin="round"/>
</g>
<defs>
<clipPath id="clip0_2_718">
<rect width="22.5" height="22.5" fill="white" transform="translate(0.5 0.5)"/>
</clipPath>
</defs>
</svg>
