<svg width="24" height="25" viewBox="0 0 24 25" fill="none" xmlns="http://www.w3.org/2000/svg">
<path d="M12 3.482C14.937 3.482 15.285 3.493 16.445 3.546C17.1424 3.55442 17.8331 3.68262 18.487 3.925C18.9649 4.10135 19.3971 4.38258 19.752 4.748C20.1174 5.10286 20.3987 5.53513 20.575 6.013C20.8174 6.66693 20.9456 7.35765 20.954 8.055C21.007 9.215 21.018 9.563 21.018 12.5C21.018 15.437 21.007 15.785 20.954 16.945C20.9456 17.6424 20.8174 18.3331 20.575 18.987C20.392 19.4615 20.1117 19.8924 19.752 20.252C19.3924 20.6117 18.9615 20.892 18.487 21.075C17.8331 21.3174 17.1424 21.4456 16.445 21.454C15.285 21.507 14.937 21.518 12 21.518C9.063 21.518 8.715 21.507 7.555 21.454C6.85731 21.4457 6.16624 21.3175 5.512 21.075C5.03449 20.8985 4.60258 20.6173 4.248 20.252C3.88258 19.8971 3.60135 19.4649 3.425 18.987C3.18262 18.3331 3.05442 17.6424 3.046 16.945C2.993 15.785 2.982 15.437 2.982 12.5C2.982 9.563 2.993 9.215 3.046 8.055C3.05442 7.35765 3.18262 6.66693 3.425 6.013C3.60135 5.53513 3.88258 5.10286 4.248 4.748C4.60286 4.38258 5.03513 4.10135 5.513 3.925C6.16693 3.68262 6.85765 3.55442 7.555 3.546C8.715 3.493 9.063 3.482 12 3.482ZM12 1.5C9.013 1.5 8.638 1.513 7.465 1.566C6.55252 1.5842 5.64972 1.75699 4.795 2.077C4.06067 2.35348 3.39552 2.7869 2.846 3.347C2.28638 3.89633 1.85331 4.56111 1.577 5.295C1.25733 6.14978 1.08488 7.05257 1.067 7.965C1.012 9.138 1 9.513 1 12.5C1 15.487 1.013 15.862 1.066 17.035C1.0842 17.9475 1.25699 18.8503 1.577 19.705C1.85348 20.4393 2.2869 21.1045 2.847 21.654C3.39633 22.2136 4.06111 22.6467 4.795 22.923C5.64978 23.2427 6.55257 23.4151 7.465 23.433C8.638 23.488 9.013 23.5 12 23.5C14.987 23.5 15.362 23.487 16.535 23.434C17.4475 23.4158 18.3503 23.243 19.205 22.923C19.936 22.6404 20.5998 22.2081 21.154 21.654C21.7081 21.0998 22.1404 20.436 22.423 19.705C22.7427 18.8502 22.9151 17.9474 22.933 17.035C22.988 15.862 23 15.487 23 12.5C23 9.513 22.987 9.138 22.934 7.965C22.9158 7.05252 22.743 6.14972 22.423 5.295C22.1465 4.56067 21.7131 3.89552 21.153 3.346C20.6037 2.78638 19.9389 2.35331 19.205 2.077C18.3502 1.75733 17.4474 1.58488 16.535 1.567C15.362 1.512 14.987 1.5 12 1.5ZM12 6.851C10.8827 6.851 9.79056 7.18231 8.86158 7.80303C7.93261 8.42375 7.20856 9.306 6.781 10.3382C6.35345 11.3704 6.24158 12.5063 6.45954 13.6021C6.67751 14.6979 7.21553 15.7044 8.00555 16.4944C8.79558 17.2845 9.80214 17.8225 10.8979 18.0405C11.9937 18.2584 13.1296 18.1466 14.1618 17.719C15.194 17.2914 16.0763 16.5674 16.697 15.6384C17.3177 14.7094 17.649 13.6173 17.649 12.5C17.649 11.0018 17.0538 9.56495 15.9944 8.50555C14.9351 7.44616 13.4982 6.851 12 6.851ZM12 16.167C11.2747 16.167 10.5658 15.9519 9.96272 15.549C9.35969 15.1461 8.88968 14.5734 8.61213 13.9033C8.33459 13.2332 8.26197 12.4959 8.40346 11.7846C8.54495 11.0733 8.8942 10.4199 9.40704 9.90704C9.91988 9.3942 10.5733 9.04495 11.2846 8.90346C11.9959 8.76197 12.7332 8.83459 13.4033 9.11213C14.0734 9.38968 14.6461 9.85969 15.049 10.4627C15.4519 11.0658 15.667 11.7747 15.667 12.5C15.667 13.4725 15.2807 14.4053 14.593 15.093C13.9053 15.7807 12.9725 16.167 12 16.167ZM17.872 5.308C17.6109 5.308 17.3557 5.38542 17.1386 5.53046C16.9216 5.6755 16.7524 5.88166 16.6525 6.12286C16.5526 6.36406 16.5264 6.62946 16.5774 6.88552C16.6283 7.14157 16.754 7.37678 16.9386 7.56138C17.1232 7.74599 17.3584 7.8717 17.6145 7.92264C17.8705 7.97357 18.1359 7.94743 18.3771 7.84752C18.6183 7.74761 18.8245 7.57843 18.9695 7.36135C19.1146 7.14428 19.192 6.88907 19.192 6.628C19.192 6.27791 19.0529 5.94217 18.8054 5.69462C18.5578 5.44707 18.2221 5.308 17.872 5.308Z" fill="black"/>
</svg>
