<svg width="31" height="35" viewBox="0 0 31 35" fill="none" xmlns="http://www.w3.org/2000/svg">
<path d="M23.801 16.2218C23.6503 16.1496 23.4971 16.08 23.342 16.0134C23.0718 11.0356 20.3519 8.18581 15.7847 8.15664C15.764 8.15651 15.7434 8.15651 15.7228 8.15651C12.991 8.15651 10.719 9.32256 9.32067 11.4444L11.8325 13.1674C12.8771 11.5825 14.5166 11.2446 15.724 11.2446C15.7379 11.2446 15.7519 11.2446 15.7657 11.2448C17.2695 11.2543 18.4043 11.6916 19.1387 12.5442C19.6732 13.165 20.0307 14.0228 20.2077 15.1054C18.8744 14.8788 17.4325 14.8091 15.891 14.8975C11.5488 15.1476 8.75722 17.6801 8.94471 21.1991C9.03985 22.9841 9.9291 24.5197 11.4486 25.5228C12.7332 26.3709 14.3878 26.7856 16.1074 26.6917C18.3784 26.5672 20.1599 25.7008 21.4028 24.1165C22.3467 22.9133 22.9437 21.3542 23.2073 19.3896C24.2895 20.0428 25.0916 20.9023 25.5346 21.9355C26.2878 23.6919 26.3318 26.5781 23.9767 28.9311C21.9134 30.9925 19.4331 31.8843 15.6847 31.9118C11.5268 31.881 8.38219 30.5475 6.33766 27.9484C4.42313 25.5146 3.43369 21.9993 3.39677 17.5C3.43369 13.0006 4.42313 9.48529 6.33766 7.05153C8.38219 4.45246 11.5267 3.11901 15.6847 3.08811C19.8728 3.11925 23.0722 4.45911 25.195 7.07073C26.2359 8.35144 27.0206 9.96202 27.538 11.8399L30.4814 11.0546C29.8544 8.74311 28.8676 6.7513 27.5249 5.09943C24.8034 1.75122 20.8233 0.0355739 15.695 0H15.6744C10.5565 0.0354503 6.62095 1.75762 3.97702 5.11862C1.62429 8.1095 0.410688 12.2711 0.369909 17.4877L0.369781 17.5L0.369909 17.5123C0.410688 22.7289 1.62429 26.8906 3.97702 29.8814C6.62095 33.2423 10.5565 34.9646 15.6744 35H15.695C20.245 34.9685 23.4523 33.7772 26.0944 31.1374C29.5512 27.6839 29.4471 23.355 28.3078 20.6976C27.4904 18.7919 25.932 17.2441 23.801 16.2218ZM15.9449 23.608C14.0417 23.7152 12.0646 22.861 11.9671 21.0314C11.8948 19.6747 12.9326 18.161 16.0617 17.9807C16.42 17.96 16.7717 17.9499 17.1171 17.9499C18.2537 17.9499 19.317 18.0603 20.2837 18.2716C19.9231 22.7746 17.8082 23.5058 15.9449 23.608Z" fill="black"/>
</svg>
