<svg width="16" height="4" viewBox="0 0 16 4" fill="none" xmlns="http://www.w3.org/2000/svg">
<path d="M3.60352 1.99561V2.01318C3.60352 2.34717 3.52441 2.64893 3.36621 2.91846C3.20801 3.18799 2.99121 3.40186 2.71582 3.56006C2.44629 3.71826 2.14453 3.79736 1.81055 3.79736H1.79297C1.45898 3.79736 1.15723 3.71826 0.887695 3.56006C0.618164 3.40186 0.401367 3.18799 0.237305 2.91846C0.0791016 2.64893 0 2.34717 0 2.01318V1.99561C0 1.66162 0.0791016 1.35986 0.237305 1.09033C0.401367 0.814941 0.618164 0.598145 0.887695 0.439941C1.15723 0.281738 1.45898 0.202637 1.79297 0.202637H1.81055C2.14453 0.202637 2.44629 0.281738 2.71582 0.439941C2.99121 0.598145 3.20801 0.814941 3.36621 1.09033C3.52441 1.35986 3.60352 1.66162 3.60352 1.99561Z" fill="black"/>
<path d="M9.80176 1.99561V2.01318C9.80176 2.34717 9.72266 2.64893 9.56445 2.91846C9.40625 3.18799 9.18945 3.40186 8.91406 3.56006C8.64453 3.71826 8.34277 3.79736 8.00879 3.79736H7.99121C7.65723 3.79736 7.35547 3.71826 7.08594 3.56006C6.81641 3.40186 6.59961 3.18799 6.43555 2.91846C6.27734 2.64893 6.19824 2.34717 6.19824 2.01318V1.99561C6.19824 1.66162 6.27734 1.35986 6.43555 1.09033C6.59961 0.814941 6.81641 0.598145 7.08594 0.439941C7.35547 0.281738 7.65723 0.202637 7.99121 0.202637H8.00879C8.34277 0.202637 8.64453 0.281738 8.91406 0.439941C9.18945 0.598145 9.40625 0.814941 9.56445 1.09033C9.72266 1.35986 9.80176 1.66162 9.80176 1.99561Z" fill="black"/>
<path d="M16 1.99561V2.01318C16 2.34717 15.9209 2.64893 15.7627 2.91846C15.6045 3.18799 15.3877 3.40186 15.1123 3.56006C14.8428 3.71826 14.541 3.79736 14.207 3.79736H14.1895C13.8555 3.79736 13.5537 3.71826 13.2842 3.56006C13.0146 3.40186 12.7979 3.18799 12.6338 2.91846C12.4756 2.64893 12.3965 2.34717 12.3965 2.01318V1.99561C12.3965 1.66162 12.4756 1.35986 12.6338 1.09033C12.7979 0.814941 13.0146 0.598145 13.2842 0.439941C13.5537 0.281738 13.8555 0.202637 14.1895 0.202637H14.207C14.541 0.202637 14.8428 0.281738 15.1123 0.439941C15.3877 0.598145 15.6045 0.814941 15.7627 1.09033C15.9209 1.35986 16 1.66162 16 1.99561Z" fill="black"/>
</svg>
