<svg width="23" height="23" viewBox="0 0 23 23" fill="none" xmlns="http://www.w3.org/2000/svg">
<g clip-path="url(#clip0_2_721)">
<path d="M18.7481 9.40364C18.4995 9.40364 18.261 9.50241 18.0852 9.67822C17.9094 9.85404 17.8106 10.0925 17.8106 10.3411V14.3049C17.8096 15.1176 17.4863 15.8968 16.9116 16.4715C16.3369 17.0462 15.5577 17.3695 14.745 17.3705H9.76406L11.4431 15.6952C11.6142 15.5186 11.709 15.2819 11.7072 15.0361C11.7054 14.7903 11.6072 14.555 11.4336 14.3809C11.26 14.2069 11.025 14.1079 10.7792 14.1055C10.5334 14.103 10.2964 14.1972 10.1194 14.3677L6.83437 17.6443C6.65855 17.8201 6.55946 18.0584 6.55875 18.3071V18.308C6.55875 18.3296 6.57 18.3474 6.57094 18.3689C6.57596 18.5967 6.67063 18.8133 6.83437 18.9718L10.1175 22.2568C10.2943 22.4275 10.5311 22.522 10.7769 22.5199C11.0227 22.5178 11.2579 22.4192 11.4317 22.2453C11.6055 22.0715 11.7041 21.8364 11.7063 21.5906C11.7084 21.3448 11.6139 21.1079 11.4431 20.9311L9.75844 19.2455H14.7441C16.0539 19.244 17.3097 18.723 18.236 17.7968C19.1622 16.8706 19.6832 15.6148 19.6847 14.3049V10.3411C19.6847 10.0925 19.5859 9.85404 19.4101 9.67822C19.2343 9.50241 18.9968 9.40364 18.7481 9.40364ZM12.7387 6.12614L11.0559 7.80895C10.9664 7.89543 10.895 7.99888 10.8458 8.11326C10.7967 8.22764 10.7708 8.35065 10.7698 8.47513C10.7687 8.59962 10.7924 8.72307 10.8395 8.83828C10.8867 8.9535 10.9563 9.05817 11.0443 9.14619C11.1323 9.23422 11.237 9.30383 11.3522 9.35097C11.4674 9.39811 11.5909 9.42183 11.7154 9.42075C11.8399 9.41966 11.9629 9.3938 12.0773 9.34467C12.1916 9.29554 12.2951 9.22411 12.3816 9.13457L15.6628 5.85332C15.8387 5.67704 15.9375 5.43816 15.9375 5.18911C15.9375 4.94005 15.8387 4.70117 15.6628 4.52489L12.3816 1.24364C12.2047 1.07286 11.9679 0.978368 11.7221 0.980504C11.4763 0.98264 11.2412 1.08124 11.0674 1.25506C10.8935 1.42888 10.7949 1.66401 10.7928 1.90982C10.7907 2.15563 10.8852 2.39245 11.0559 2.56926L12.7378 4.25114H7.75313C6.44332 4.25287 5.18766 4.77396 4.26149 5.70013C3.33532 6.6263 2.81424 7.88196 2.8125 9.19176V13.1564C2.8125 13.4051 2.91127 13.6435 3.08709 13.8194C3.2629 13.9952 3.50136 14.0939 3.75 14.0939C3.99864 14.0939 4.2371 13.9952 4.41291 13.8194C4.58873 13.6435 4.6875 13.4051 4.6875 13.1564V9.19176C4.68874 8.37893 5.01225 7.59975 5.5871 7.02508C6.16195 6.4504 6.94123 6.12713 7.75406 6.12614H12.7387Z" fill="black"/>
</g>
<defs>
<clipPath id="clip0_2_721">
<rect width="22.5" height="22.5" fill="white" transform="translate(0 0.5)"/>
</clipPath>
</defs>
</svg>
