<svg width="20" height="20" viewBox="0 0 20 20" fill="none" xmlns="http://www.w3.org/2000/svg">
<path d="M5.95839 4.59536L5.79569 3.86322L4.05862 4.24923C3.32015 4.41334 2.81944 5.10165 2.89068 5.85478L3.06042 7.64914L1.86771 9.01224C1.37286 9.57778 1.37286 10.4222 1.86771 10.9878L3.06042 12.3509L2.89068 14.1452C2.81944 14.8983 3.32015 15.5867 4.05862 15.7508L5.79569 16.1368L6.71992 17.6934C7.1037 18.3397 7.90667 18.6022 8.59813 18.3073L10.25 17.6029L11.9019 18.3073C12.5933 18.6022 13.3963 18.3397 13.7801 17.6934L14.7043 16.1368L16.4414 15.7508C17.1798 15.5867 17.6806 14.8983 17.6093 14.1452L17.4396 12.3509L18.6323 10.9878C19.1271 10.4222 19.1271 9.57778 18.6323 9.01224L17.4396 7.64914L17.6093 5.85477C17.6806 5.10165 17.1798 4.41334 16.4414 4.24923L14.7043 3.86322L13.7801 2.30663C13.3963 1.66025 12.5933 1.39778 11.9019 1.69267L10.25 2.39714L8.59813 1.69267C7.90666 1.39778 7.1037 1.66026 6.71992 2.30663L5.79569 3.86322L5.95839 4.59536ZM8.93845 11.0615L9.4687 11.5795L9.99283 11.0553L12.6406 8.40755L12.6486 8.41578L9.4625 11.6018L8.23956 10.3789L8.93845 11.0615Z" fill="#4192EF" stroke="white" stroke-width="1.5"/>
</svg>
